<svg width="11" height="12" viewBox="0 0 11 12" fill="none" xmlns="http://www.w3.org/2000/svg">
<path d="M4.04773 2.34615L4.37849 1.49231C4.43428 1.34774 4.53242 1.22339 4.66007 1.13555C4.78772 1.0477 4.93892 1.00046 5.09388 1H5.72465C5.8796 1.00046 6.03081 1.0477 6.15846 1.13555C6.28611 1.22339 6.38425 1.34774 6.44003 1.49231L6.7708 2.34615L7.89388 2.99231L8.80157 2.85385C8.95271 2.83333 9.10654 2.85821 9.24351 2.92533C9.38048 2.99244 9.4944 3.09876 9.5708 3.23077L9.8785 3.76923C9.95734 3.90335 9.99367 4.05822 9.98268 4.2134C9.97169 4.36859 9.91391 4.51679 9.81696 4.63846L9.25542 5.35385V6.64615L9.83234 7.36154C9.92929 7.48321 9.98708 7.63141 9.99806 7.7866C10.0091 7.94179 9.97272 8.09665 9.89388 8.23077L9.58619 8.76923C9.50978 8.90124 9.39586 9.00756 9.25889 9.07467C9.12193 9.14179 8.9681 9.16667 8.81696 9.14615L7.90926 9.00769L6.78619 9.65385L6.45542 10.5077C6.39963 10.6523 6.30149 10.7766 6.17384 10.8645C6.04619 10.9523 5.89499 10.9995 5.74003 11H5.09388C4.93892 10.9995 4.78772 10.9523 4.66007 10.8645C4.53242 10.7766 4.43428 10.6523 4.37849 10.5077L4.04773 9.65385L2.92465 9.00769L2.01696 9.14615C1.86581 9.16667 1.71199 9.14179 1.57502 9.07467C1.43805 9.00756 1.32413 8.90124 1.24773 8.76923L0.940033 8.23077C0.861188 8.09665 0.824861 7.94179 0.835848 7.7866C0.846835 7.63141 0.904618 7.48321 1.00157 7.36154L1.56311 6.64615L1.56311 5.35385L0.986187 4.63846C0.889233 4.51679 0.83145 4.36859 0.820463 4.2134C0.809477 4.05822 0.845803 3.90335 0.924648 3.76923L1.23234 3.23077C1.30874 3.09876 1.42267 2.99244 1.55963 2.92533C1.6966 2.85821 1.85043 2.83333 2.00157 2.85385L2.90926 2.99231L4.04773 2.34615ZM3.8708 6C3.8708 6.30428 3.96103 6.60172 4.13008 6.85472C4.29913 7.10772 4.5394 7.30491 4.82052 7.42135C5.10164 7.5378 5.41097 7.56826 5.7094 7.5089C6.00783 7.44954 6.28196 7.30301 6.49712 7.08786C6.71228 6.8727 6.8588 6.59857 6.91816 6.30014C6.97753 6.00171 6.94706 5.69237 6.83062 5.41126C6.71417 5.13014 6.51699 4.88986 6.26399 4.72082C6.01099 4.55177 5.71354 4.46154 5.40926 4.46154C5.00124 4.46154 4.60992 4.62363 4.32141 4.91214C4.03289 5.20066 3.8708 5.59197 3.8708 6Z" stroke="#5886c7" stroke-linecap="round" stroke-linejoin="round"/>
</svg>
